<svg version="1" xmlns="http://www.w3.org/2000/svg" width="2666.667" height="2666.667" viewBox="0 0 2000.000000 2000.000000"><path d="M943.5 48.1c-20.4 1.3-47.3 3.8-68 6.5-287 37.1-543.2 205.2-693.3 455C108.4 632.4 63.3 770.4 50.5 912.5c-2.7 30.9-3.5 50.3-3.5 87.5s.8 56.6 3.5 87.5c27 301.4 198 573.4 459.1 730.3 132.7 79.8 278.6 124.6 436.4 134.2 21.3 1.3 86.7 1.3 108 0 107.7-6.5 208-29 304.5-68.2 216.9-88.2 395.3-254.5 498-464.3 56.2-114.9 87.6-235 95.5-365.5 1.3-21.3 1.3-86.7 0-108-7.9-130.5-39.3-250.6-95.5-365.5-102.7-209.8-281.1-376.1-498-464.3C1262 77 1161.7 54.5 1054 48c-19.1-1.1-91.3-1.1-110.5.1zM1171 228c256.9 5.6 383.6 30.7 407.4 81 3 6.4 3.1 6.8 3 21-.1 10.7-.8 18.3-2.7 29-12.8 72.2-56.3 232.9-96.2 355-13.1 39.9-46.3 133.8-67 189.5-96.8 260-202.7 478.1-323 665.5-48.4 75.4-77.7 113.3-120.2 155.1-36 35.5-69.2 60.1-107.8 80-41.4 21.4-79.9 32.3-126.5 36-37.2 3-66.1-2.2-97.5-17.6-36.9-18-72-48.2-108-93-47.5-59.1-74.2-117.5-84.2-184-2.6-17.2-2.6-68.1 0-88 12.2-94.3 54.2-180.2 118.4-242.7 23.1-22.4 55.9-44.6 94.3-63.8 46.7-23.4 70.2-25.8 85.3-9 9.4 10.4 13.7 24.1 14.4 46.2.6 17.5-.2 23-9.2 63.8-19.1 85.9-30 154.4-36.2 227-2.2 26.1-2.5 100.7-.5 117 1.9 15 5 33.2 7.3 42.5 3.6 14.6 8.1 29.5 9 29.5 2.2 0 25.5-35.6 39.7-60.5 17.2-30.2 25.3-48.8 49.5-113.5 48.9-130.9 80.3-229.2 124.1-388.5 48.6-177.1 72.9-290.2 100-465.5 9.3-60.1 24.9-171 24.2-171.8-.6-.6-69.3 14.5-113.1 24.8-104.6 24.7-174.8 38.7-229.5 46.1-22.4 3-60.6 3.7-79.9 1.5-59.6-6.9-95.1-27.5-101.7-58.8-2.6-12.1-.4-31.1 5.7-49.8 15.9-48.6 66.1-111.3 115.4-144.1 18.9-12.6 38.4-21.2 65.5-28.9 66.2-18.7 156.8-29 276-31.3 35.7-.7 124.8-.6 164 .3z"/></svg>