<?xml version="1.0" encoding="UTF-8" standalone="no"?>
<!-- Created with Inkscape (http://www.inkscape.org/) -->

<svg
   width="112.00001mm"
   height="112.00002mm"
   viewBox="0 0 112.00001 112.00002"
   version="1.1"
   id="svg5"
   inkscape:export-filename="aithenutrigene.svg"
   inkscape:export-xdpi="8.5521889"
   inkscape:export-ydpi="8.5521889"
   xmlns:inkscape="http://www.inkscape.org/namespaces/inkscape"
   xmlns:sodipodi="http://sodipodi.sourceforge.net/DTD/sodipodi-0.dtd"
   xmlns="http://www.w3.org/2000/svg"
   xmlns:svg="http://www.w3.org/2000/svg">
  <sodipodi:namedview
     id="namedview7"
     pagecolor="#ffffff"
     bordercolor="#000000"
     borderopacity="0.25"
     inkscape:showpageshadow="2"
     inkscape:pageopacity="0.0"
     inkscape:pagecheckerboard="0"
     inkscape:deskcolor="#d1d1d1"
     inkscape:document-units="mm"
     showgrid="false" />
  <defs
     id="defs2">
    <rect
       x="437.36292"
       y="419.76007"
       width="165.19591"
       height="94.107498"
       id="rect1943" />
    <rect
       x="437.36292"
       y="419.76007"
       width="304.16821"
       height="89.214607"
       id="rect1943-4" />
  </defs>
  <g
     inkscape:label="Layer 1"
     inkscape:groupmode="layer"
     id="layer1"
     transform="translate(-49.756971,-81.018903)">
    <g
       aria-label="AI"
       transform="scale(0.84855595,1.1784727)"
       id="text360"
       style="font-weight:bold;font-size:54.7801px;-inkscape-font-specification:'sans-serif Bold';text-align:end;letter-spacing:3.96875px;direction:rtl;text-anchor:end;fill:#5c5c5a;fill-opacity:1;stroke:none;stroke-width:1.99999;stroke-linecap:round;stop-color:#000000">
      <rect
         style="font-weight:bold;font-size:54.7801px;-inkscape-font-specification:'sans-serif Bold';text-align:end;letter-spacing:3.96875px;direction:rtl;text-anchor:end;fill:#ffffff;fill-opacity:1;stroke:none;stroke-width:1.99999;stroke-linecap:round;stop-color:#000000"
         id="rect2097"
         width="131.98894"
         height="95.038269"
         x="58.637234"
         y="68.749069" />
      <path
         d="m 105.37503,124.78124 h -9.58937 l -3.811922,-9.45566 H 74.522266 l -3.603461,9.45566 h -9.35113 L 78.572437,83.153619 h 9.32135 z M 89.144575,108.31192 83.12888,92.864839 77.232307,108.31192 Z"
         style="font-family:Arial;-inkscape-font-specification:'Arial Bold';fill:#941016;fill-opacity:1;stroke:none;stroke-width:1.99999"
         id="path1074" />
      <path
         d="M 114.20128,124.78124 V 83.153619 h 8.81508 v 41.627621 z"
         style="font-family:Arial;-inkscape-font-specification:'Arial Bold';fill:#941016;fill-opacity:1;stroke:none;stroke-width:1.99999"
         id="path1076" />
      <g
         aria-label="the"
         transform="matrix(0.65338236,0,0,0.553412,-154.2639,-139.58851)"
         id="text1941"
         style="font-weight:900;font-family:Arial;-inkscape-font-specification:'Arial Heavy';letter-spacing:0px;white-space:pre;shape-inside:url(#rect1943);stroke-width:3.326;stop-color:#000000">
        <path
           d="m 441.48249,446.39405 1.17691,-5.69734 h 3.74474 l 0.93618,-4.54718 8.80013,-5.29612 -2.05961,9.8433 h 4.68092 l -1.17692,5.69734 h -4.70766 l -2.48758,11.9029 q -0.6687,3.23652 -0.6687,3.69124 0,0.88269 0.56171,1.3909 0.56171,0.48147 2.03286,0.48147 0.50821,0 2.54107,-0.18724 l -1.20367,5.69735 q -1.97936,0.40122 -4.06571,0.40122 -4.06571,0 -5.91133,-1.55139 -1.84562,-1.57814 -1.84562,-4.35994 0,-1.31066 0.98968,-6.04507 l 2.38058,-11.42144 z"
           style="letter-spacing:4.55705px;stroke-width:3.326"
           id="path2997" />
        <path
           d="m 470.13957,469.10318 h -7.6767 l 8.21167,-39.21271 h 7.6767 l -2.94229,13.96251 q 2.59457,-2.03285 4.84141,-2.91554 2.24684,-0.90944 4.81465,-0.90944 3.45051,0 5.45661,1.97936 2.00611,1.97936 2.00611,5.18913 0,1.71188 -0.74895,5.29613 l -3.47725,16.61056 h -7.6767 l 3.5575,-16.93154 q 0.56171,-2.75505 0.56171,-3.53075 0,-1.41765 -0.88269,-2.27359 -0.88269,-0.85594 -2.40733,-0.85594 -1.92586,0 -3.69124,1.33741 -2.30033,1.76537 -3.504,4.33319 -0.6687,1.41765 -1.76537,6.66028 z"
           style="letter-spacing:0.979774px;stroke-width:3.326"
           id="path2999" />
        <path
           d="m 524.45505,457.28053 h -19.25863 q -0.0267,0.45471 -0.0267,0.69545 0,2.83529 1.60489,4.57392 1.63163,1.73863 3.95872,1.73863 3.82498,0 5.96482,-3.95872 l 6.87426,1.15017 q -2.0061,4.14595 -5.37636,6.2323 -3.34352,2.05961 -7.51622,2.05961 -5.72409,0 -9.30834,-3.611 -3.58424,-3.63774 -3.58424,-9.60256 0,-5.83109 3.23652,-10.37826 4.41343,-6.15207 12.59835,-6.15207 5.21588,0 8.29191,3.23652 3.07603,3.20977 3.07603,9.01411 0,2.7818 -0.53496,5.0019 z m -6.47304,-4.68092 q 0.0268,-0.50821 0.0268,-0.7757 0,-3.15627 -1.41765,-4.73441 -1.41765,-1.57814 -3.79823,-1.57814 -2.38058,0 -4.27969,1.79213 -1.87237,1.79212 -2.54107,5.29612 z"
           style="font-style:italic;font-weight:bold;-inkscape-font-specification:'Arial Bold Italic';stroke-width:3.326"
           id="path3001" />
      </g>
      <text
         xml:space="preserve"
         transform="matrix(0.4420101,0,0,0.3999886,-134.66676,-39.987157)"
         id="text1941-1"
         style="font-style:normal;font-variant:normal;font-weight:900;font-stretch:normal;font-size:54.7801px;font-family:Arial;-inkscape-font-specification:'Arial Heavy';text-align:end;letter-spacing:0px;direction:rtl;white-space:pre;shape-inside:url(#rect1943-4);fill:#16a6a2;fill-opacity:1;stroke:none;stroke-width:4.75655;stroke-linecap:round;stop-color:#000000"><tspan
           x="437.36328"
           y="468.87445"
           id="tspan3906">Nutrigene</tspan></text>
      <path
         id="rect2049"
         style="stroke-width:2;stop-color:#000000"
         d="M 135.43082,122.199 H 183.751 v 1.13407 h -48.32018 z" />
    </g>
  </g>
</svg>
