<?xml version="1.0" encoding="UTF-8"?>
<svg width="3.7794cm" height="4.2307cm" version="1.1" viewBox="0 0 107.13 119.83" xmlns="http://www.w3.org/2000/svg">
  <defs>
    <style>.cls-1{fill:#fff;}.cls-2{fill:#141414;}.cls-3{fill:#789568;}</style>
  </defs>
  <rect class="cls-1" x="7.83" y="4.638" width="92.92" height="89.83"/>
  <g transform="translate(-8.3 -7.072)">
    <path class="cls-3" d="m84.41 126.94h-45.13c-1.97 0-3.4-2.29-2.85-4.6l1.43-6.09c0.36-1.55 1.53-2.61 2.85-2.61h42.26c1.33 0 2.49 1.07 2.85 2.61l1.43 6.09c0.54 2.3-0.88 4.6-2.85 4.6z"/>
    <path class="cls-3" d="m105.53 7.02h-87.32c-5.45 0-9.91 4.46-9.91 9.91v79.15c0 5.45 4.46 9.91 9.91 9.91h87.31c5.45 0 9.91-4.46 9.91-9.91v-79.14c0-5.45-4.46-9.91-9.91-9.91zm-5.19 53.7-36.05-0.02 27.78-27.78c5.27 6.7 8.43 15.15 8.43 24.34 0 1.17-0.06 2.32-0.16 3.46zm-13.11-32.94-27.93 27.93-0.02-37.81c0.6-0.03 1.21-0.05 1.82-0.05 10.03 0 19.18 3.75 26.13 9.92zm-34.99-8.91v43.65l-20.74 20.74c-6.1-6.94-9.81-16.03-9.81-26 0-18.71 13.05-34.37 30.54-38.39zm8.86 77.79c-9.37 0-17.96-3.27-24.73-8.73l20.17-20.17h42.53c-4.6 16.66-19.85 28.9-37.98 28.9z"/>
  </g>
</svg>
