<?xml version="1.0" encoding="UTF-8" standalone="no"?>
<svg width="25" height="25" xmlns="http://www.w3.org/2000/svg">
  <path
     d="m 20.053309,8.1538164 c 0.013,-0.06 0.026,-0.118 0.043,-0.177 l 0.136,-2.132 a 3.351,3.351 0 0 0 -1.074,-1.584 3.458,3.458 0 0 0 -3.685,-0.434 3.389,3.389 0 0 0 -1.423,1.29 l -1.192,1.953 -8.0430002,-6.43100008 a 1.008,1.008 0 0 0 -1.076,-0.132 c -0.505,0.214 -0.74,0.80999998 -0.521,1.32200008 l 5.391,12.2629996 -3.376,5.569 -1.679,2.776 a 1.517,1.517 0 0 0 0.536,2.114 c 0.188,0.1 0.393,0.169 0.605,0.2 a 1.603,1.603 0 0 0 1.545,-0.743 l 3.093,-4.894 0.116,-0.031 a 15.23,15.23 0 0 0 6.7480002,-3.985 14.874,14.874 0 0 0 3.856,-6.9439996 z"
     fill="#f06530"/>
  <path
     d="m 19.206309,5.3818164 3.41,1.124 a 0.562,0.562 0 0 1 0.328,0.282 0.545,0.545 0 0 1 0.024,0.429 0.52,0.52 0 0 1 -0.353,0.347 l -3.426,1.223"
     fill="#f06530" />
</svg>
