<?xml version="1.0" encoding="UTF-8" standalone="no"?>
<!-- Created with Inkscape (http://www.inkscape.org/) -->

<svg
   version="1.1"
   id="svg2"
   width="1440"
   height="1440"
   viewBox="0 0 1440 1440"
   sodipodi:docname="protons.ai"
   xmlns:inkscape="http://www.inkscape.org/namespaces/inkscape"
   xmlns:sodipodi="http://sodipodi.sourceforge.net/DTD/sodipodi-0.dtd"
   xmlns="http://www.w3.org/2000/svg"
   xmlns:svg="http://www.w3.org/2000/svg">
  <defs
     id="defs6">
    <clipPath
       clipPathUnits="userSpaceOnUse"
       id="clipPath38">
      <path
         d="M 0,1080 H 1080 V 0 H 0 Z"
         id="path36" />
    </clipPath>
  </defs>
  <sodipodi:namedview
     id="namedview4"
     pagecolor="#ffffff"
     bordercolor="#000000"
     borderopacity="0.25"
     inkscape:showpageshadow="2"
     inkscape:pageopacity="0.0"
     inkscape:pagecheckerboard="0"
     inkscape:deskcolor="#d1d1d1"
     showgrid="false" />
  <g
     id="g30"
     inkscape:groupmode="layer"
     inkscape:label="Page 2"
     transform="matrix(1.3333333,0,0,-1.3333333,0,1440)">
    <g
       id="g32">
      <g
         id="g34"
         clip-path="url(#clipPath38)">
        <g
           id="g40"
           transform="translate(198.272,234.835)">
          <path
             d="m 0,0 c -85.066,0 -154.272,69.206 -154.272,154.272 0,41.073 16.084,79.777 45.29,108.982 29.205,29.206 67.909,45.29 108.982,45.29 h 11.847 c -0.534,5.296 -0.803,10.644 -0.803,16.038 0,86.595 70.451,157.045 157.046,157.045 3.082,0 6.16,-0.09 9.231,-0.27 44.893,79.146 129.165,128.973 221.547,128.973 68.032,0 131.99,-26.49 180.09,-74.592 48.102,-48.101 74.592,-112.058 74.592,-180.091 0,-15.936 -1.454,-31.67 -4.343,-47.103 h 34.25 c 85.065,0 154.271,-69.206 154.271,-154.272 0,-41.073 -16.084,-79.777 -45.289,-108.982 C 763.232,16.084 724.528,0 683.457,0 Z"
             style="fill:#daff00;fill-opacity:1;fill-rule:nonzero;stroke:none"
             id="path42" />
        </g>
        <g
           id="g44"
           transform="translate(597.1396,880.165)">
          <path
             d="m 0,0 c -97.999,0 -187.976,-49.302 -241.074,-128.973 -22.27,-1.171 -43.914,-6.151 -64.478,-14.848 -22.879,-9.675 -43.411,-23.512 -61.026,-41.127 -17.614,-17.615 -31.452,-38.147 -41.127,-61.026 -7.75,-18.324 -12.548,-37.505 -14.33,-57.223 -17.353,-2.132 -34.269,-6.673 -50.518,-13.577 -22.492,-9.558 -42.694,-23.201 -60.045,-40.552 -17.352,-17.351 -30.996,-37.554 -40.553,-60.047 -9.946,-23.407 -14.989,-48.198 -14.989,-73.685 0,-25.487 5.042,-50.277 14.986,-73.682 9.557,-22.492 23.201,-42.696 40.555,-60.049 17.354,-17.354 37.557,-30.999 60.05,-40.555 23.404,-9.944 48.195,-14.986 73.681,-14.986 h 683.457 c 25.486,0 50.278,5.043 73.685,14.989 22.492,9.557 42.694,23.2 60.045,40.551 17.352,17.352 30.995,37.554 40.553,60.047 9.945,23.407 14.988,48.198 14.988,73.685 0,25.487 -5.042,50.277 -14.986,73.682 -9.556,22.492 -23.2,42.695 -40.555,60.049 -17.353,17.354 -37.556,30.999 -60.048,40.555 -21.919,9.313 -45.055,14.326 -68.838,14.925 0.166,4.043 0.25,8.097 0.25,12.164 0,39.078 -7.669,77.023 -22.792,112.781 -14.593,34.505 -35.47,65.478 -62.051,92.059 -26.581,26.581 -57.555,47.458 -92.059,62.051 C 77.022,-7.668 39.077,0 0,0 m 0,-70 c 121.336,0 219.683,-98.347 219.683,-219.683 0,-29.024 -5.637,-56.74 -15.867,-82.103 h 80.773 c 65.594,0 119.271,-53.678 119.271,-119.272 0,-32.797 -13.424,-62.621 -35.038,-84.234 -21.614,-21.613 -51.436,-35.038 -84.233,-35.038 h -683.457 c -65.594,0 -119.272,53.678 -119.272,119.272 0,32.797 13.425,62.621 35.039,84.234 21.613,21.613 51.436,35.038 84.233,35.038 h 57.207 c -7.169,15.533 -11.162,32.819 -11.162,51.037 0,67.414 54.632,122.046 122.046,122.046 10.074,0 19.838,-1.22 29.202,-3.528 C -167.779,-124.41 -90.247,-70 0,-70"
             style="fill:#070606;fill-opacity:1;fill-rule:nonzero;stroke:none"
             id="path46" />
        </g>
      </g>
    </g>
  </g>
</svg>
